<svg xmlns="http://www.w3.org/2000/svg" xmlns:xlink="http://www.w3.org/1999/xlink" width="512" zoomAndPan="magnify" viewBox="0 0 384 383.999986" height="512" preserveAspectRatio="xMidYMid meet" version="1.0"><defs><g/><clipPath id="53986c13f5"><path d="M 37.5 0 L 346.5 0 C 356.445312 0 365.984375 3.949219 373.015625 10.984375 C 380.050781 18.015625 384 27.554688 384 37.5 L 384 346.5 C 384 356.445312 380.050781 365.984375 373.015625 373.015625 C 365.984375 380.050781 356.445312 384 346.5 384 L 37.5 384 C 27.554688 384 18.015625 380.050781 10.984375 373.015625 C 3.949219 365.984375 0 356.445312 0 346.5 L 0 37.5 C 0 27.554688 3.949219 18.015625 10.984375 10.984375 C 18.015625 3.949219 27.554688 0 37.5 0 Z M 37.5 0 " clip-rule="nonzero"/></clipPath><clipPath id="77178cc3e8"><path d="M 0 0 L 384 0 L 384 384 L 0 384 Z M 0 0 " clip-rule="nonzero"/></clipPath><clipPath id="21086ab12f"><path d="M 37.5 0 L 346.5 0 C 356.445312 0 365.984375 3.949219 373.015625 10.984375 C 380.050781 18.015625 384 27.554688 384 37.5 L 384 346.5 C 384 356.445312 380.050781 365.984375 373.015625 373.015625 C 365.984375 380.050781 356.445312 384 346.5 384 L 37.5 384 C 27.554688 384 18.015625 380.050781 10.984375 373.015625 C 3.949219 365.984375 0 356.445312 0 346.5 L 0 37.5 C 0 27.554688 3.949219 18.015625 10.984375 10.984375 C 18.015625 3.949219 27.554688 0 37.5 0 Z M 37.5 0 " clip-rule="nonzero"/></clipPath><clipPath id="099d1e48c0"><rect x="0" width="384" y="0" height="384"/></clipPath><clipPath id="1abd785f84"><rect x="0" width="178" y="0" height="384"/></clipPath></defs><g clip-path="url(#53986c13f5)"><g><g clip-path="url(#099d1e48c0)"><g clip-path="url(#77178cc3e8)"><g clip-path="url(#21086ab12f)"><rect x="-84.48" width="552.96" fill="#fe4b09" height="552.959979" y="-84.479997" fill-opacity="1"/></g></g></g></g></g><g transform="matrix(1, 0, 0, 1, 103, 0)"><g clip-path="url(#1abd785f84)"><g fill="#222222" fill-opacity="1"><g transform="translate(1.35821, 336.107102)"><g><path d="M 161.09375 -69.515625 L 161.09375 0 L 125.703125 0 C 66.046875 0 36.21875 -29.550781 36.21875 -88.65625 L 36.21875 -165.671875 L 7.5 -165.671875 L 7.5 -233.515625 L 36.21875 -233.515625 L 36.21875 -290.125 L 118.21875 -290.125 L 118.21875 -233.515625 L 160.671875 -233.515625 L 160.671875 -165.671875 L 118.21875 -165.671875 L 118.21875 -87.40625 C 118.21875 -81.03125 119.671875 -76.453125 122.578125 -73.671875 C 125.492188 -70.898438 130.421875 -69.515625 137.359375 -69.515625 Z M 161.09375 -69.515625 "/></g></g></g></g></g></svg>